<svg viewBox="0 0 120 120" fill="none" xmlns="http://www.w3.org/2000/svg">
  <!-- Hexagon background with rounded corners -->
  <path d="M60 6 C60 6 62 6 63.4 6.8 L103 29.8 C104.4 30.6 105.2 32.1 105.2 33.7 L105.2 86.3 C105.2 87.9 104.4 89.4 103 90.2 L63.4 113.2 C62 114 60 114 60 114 C60 114 58 114 56.6 113.2 L17 90.2 C15.6 89.4 14.8 87.9 14.8 86.3 L14.8 33.7 C14.8 32.1 15.6 30.6 17 29.8 L56.6 6.8 C58 6 60 6 60 6 Z" fill="#8B1A14"/>
  <!-- Inner hexagon border -->
  <path d="M60 13 C60 13 61.6 13 62.8 13.7 L97.5 33.5 C98.7 34.2 99.4 35.5 99.4 36.9 L99.4 83.1 C99.4 84.5 98.7 85.8 97.5 86.5 L62.8 106.3 C61.6 107 60 107 60 107 C60 107 58.4 107 57.2 106.3 L22.5 86.5 C21.3 85.8 20.6 84.5 20.6 83.1 L20.6 36.9 C20.6 35.5 21.3 34.2 22.5 33.5 L57.2 13.7 C58.4 13 60 13 60 13 Z" stroke="rgba(255,255,255,0.55)" stroke-width="2"/>
  <!-- Mountain silhouette — left hill -->
  <path d="M26 84 L41 56 L52 67" stroke="white" stroke-width="3.2" stroke-linecap="round" stroke-linejoin="round"/>
  <!-- Mountain silhouette — center peak (tallest) -->
  <path d="M48 70 L60 36 L72 70" stroke="white" stroke-width="3.2" stroke-linecap="round" stroke-linejoin="round"/>
  <!-- Mountain silhouette — right hill -->
  <path d="M68 67 L79 56 L94 84" stroke="white" stroke-width="3.2" stroke-linecap="round" stroke-linejoin="round"/>
  <!-- River / flow line at base -->
  <path d="M26 84 Q43 74 60 80 Q77 86 94 78" stroke="white" stroke-width="3.2" stroke-linecap="round" fill="none"/>
</svg>
